General

Complete name                    :  kama sutra-a tale of love{psp.ipod.zune}DVDRip.aaaevilacharya.m4v
Format                           : MPEG-4
Format profile                   : Base Media / Version 2
Codec ID                         : mp42
File size                        : 399 MiB
Duration                         : 1h 50mn
Overall bit rate                 : 507 Kbps
Encoded date                     : UTC 2010-11-28 03:34:56
Tagged date                      : UTC 2010-11-28 04:25:11


Video
ID                               : 1
Format                           : AVC
Format/Info                      : Advanced Video Codec
Format profile                   : Baseline@L3.0
Format settings, CABAC           : No
Format settings, ReFrames        : 1 frame
Codec ID                         : avc1
Codec ID/Info                    : Advanced Video Coding
Duration                         : 1h 50mn
Bit rate mode                    : Variable
Bit rate                         : 344 Kbps
Width                            : 384 pixels
Height                           : 208 pixels
Display aspect ratio             : 16:9
Frame rate mode                  : Variable
Frame rate                       : 23.909 fps
Minimum frame rate               : 0.338 fps
Maximum frame rate               : 23.981 fps
Color space                      : YUV
Chroma subsampling               : 4:2:0
Bit depth                        : 8 bits
Scan type                        : Progressive
Bits/(Pixel*Frame)               : 0.180
Stream size                      : 271 MiB (68%)
Writing library                  : x264 core 79


Audio
ID                               : 2
Format                           : AAC
Format/Info                      : Advanced Audio Codec
Format version                   : Version 4
Format profile                   : LC
Format settings, SBR             : No
Codec ID                         : 40
Duration                         : 1h 50mn
Bit rate mode                    : Variable
Bit rate                         : 160 Kbps
Maximum bit rate                 : 200 Kbps
Channel(s)                       : 2 channels
Channel positions                : Front: L R
Sampling rate                    : 48.0 KHz
Stream size                      : 126 MiB (32%)
Encoded date                     : UTC 2010-11-28 03:34:56
Tagged date                      : UTC 2010-11-28 04:25:11

Text
ID                               : 3
Format                           : Apple text
Codec ID                         : text
Duration                         : 1h 50mn
Bit rate                         : 0
Stream size                      : 14.0 Bytes (0%)
Encoded date                     : UTC 2010-11-28 03:34:56
Tagged date                      : UTC 2010-11-28 04:25:11

screenshots 
http://img804.imageshack.us/img804/4471/kamasutraataleoflove1m4.jpg 
http://img34.imageshack.us/img34/4471/kamasutraataleoflove1m4.jpg 
http://img829.imageshack.us/img829/4471/kamasutraataleoflove1m4.jpg 
http://img263.imageshack.us/img263/4471/kamasutraataleoflove1m4.jpg 
http://img163.imageshack.us/img163/4471/kamasutraataleoflove1m4.jpg
